<?xml version="1.0" encoding="UTF-8"?><svg id="Layer_2" xmlns="http://www.w3.org/2000/svg" viewBox="0 0 338 338"><defs><style>.cls-1{fill:#0db760;stroke-width:0px;}</style></defs><g id="Layer_1-2"><path class="cls-1" d="m169,0C75.66,0,0,75.66,0,169s75.66,169,169,169,169-75.66,169-169S262.34,0,169,0Zm-9.83,136.88h-36.1v91.11h-33.35v-91.11h-26.22c-5.46,0-9.88-4.42-9.88-9.88v-19.34h105.56v29.23Zm116.47,77.18c-3.38,3.33-7.22,6.19-11.52,8.6-4.29,2.41-9.11,4.3-14.44,5.67-5.33,1.38-11.32,2.06-17.96,2.06-8.6,0-16.68-1.55-24.24-4.64-7.57-3.1-14.13-7.42-19.68-12.98-5.56-5.55-9.97-12.14-13.24-19.77-3.27-7.62-4.9-15.9-4.9-24.84v-.35c0-8.71,1.6-16.87,4.81-24.5,3.21-7.62,7.62-14.26,13.23-19.94,5.62-5.68,12.3-10.11,20.03-13.33,7.74-3.21,16.19-4.81,25.36-4.81,6.19,0,11.81.6,16.85,1.8,5.04,1.2,9.65,2.92,13.84,5.16,4.18,2.24,7.97,4.9,11.35,8,3.38,3.09,6.39,6.48,9.03,10.14l-25.11,19.43c-3.43-4.36-7.22-7.79-11.35-10.32-4.12-2.52-9.11-3.78-14.96-3.78-4.24,0-8.11.83-11.6,2.49-3.5,1.66-6.51,3.92-9.02,6.79-2.52,2.87-4.5,6.25-5.93,10.14-1.43,3.9-2.15,8.02-2.15,12.37v.34c0,4.47.71,8.68,2.15,12.64,1.43,3.95,3.41,7.37,5.93,10.23,2.52,2.87,5.53,5.13,9.02,6.79,3.5,1.66,7.37,2.49,11.6,2.49,3.1,0,5.93-.34,8.51-1.03,2.57-.69,4.92-1.69,7.04-3.01,2.12-1.32,4.13-2.87,6.02-4.64.02-.02.04-.04.06-.05,3.42-3.23,8.62-3.68,12.45-.95l18.17,12.95c-2.86,3.9-5.99,7.51-9.37,10.83Z"/></g></svg>